# xmcd CD database file
#
# Track frame offsets:
#	183
#	19433
#	35633
#	49583
#	64808
#	74033
#	83783
#	103883
#	125183
#	136658
#	150083
#	155258
#
# Disc length: 2170 seconds
#
# Revision: 0
# Processed by: cddbd v1.4PL0 Copyright (c) Steve Scherf et al.
# Submitted via: CDex 1.50Beta7
#
DISCID=a308780c
DTITLE=Ondøej Soukup - Checkmate
DYEAR=1990
DGENRE=Jazz
TTITLE0=Prolog
TTITLE1=Bili
TTITLE2=Cerni
TTITLE3=Rinceni zbrani
TTITLE4=Kral a kralovna
TTITLE5=Ticho pred bojem
TTITLE6=Valka
TTITLE7=Setkani
TTITLE8=Dialog ctyr
TTITLE9=Moc a laska
TTITLE10=Apokalypsa
TTITLE11=Epilog
EXTD=YEAR: 1990
EXTT0=
EXTT1=
EXTT2=
EXTT3=
EXTT4=
EXTT5=
EXTT6=
EXTT7=
EXTT8=
EXTT9=
EXTT10=
EXTT11=
PLAYORDER=
